<?xml version="1.0" encoding="UTF-8"?>
<!DOCTYPE svg PUBLIC "-//W3C//DTD SVG 1.1//EN" "http://www.w3.org/Graphics/SVG/1.1/DTD/svg11.dtd">
<!-- Creator: CorelDRAW 2020 (64-Bit) -->
<svg xmlns="http://www.w3.org/2000/svg" xml:space="preserve" width="9.84649in" height="3.76498in" version="1.1" style="shape-rendering:geometricPrecision; text-rendering:geometricPrecision; image-rendering:optimizeQuality; fill-rule:evenodd; clip-rule:evenodd"
viewBox="0 0 9846.49 3764.98"
 xmlns:xlink="http://www.w3.org/1999/xlink"
 xmlns:xodm="http://www.corel.com/coreldraw/odm/2003">
 <defs>
  <style type="text/css">
   <![CDATA[
    .fil1 {fill:#699949}
    .fil0 {fill:#3B6E1C;fill-rule:nonzero}
   ]]>
  </style>
 </defs>
 <g id="Layer_x0020_1">
  <metadata id="CorelCorpID_0Corel-Layer"/>
  <g id="_2236094476336">
   <path class="fil0" d="M2908.99 1450.21c170.42,0 284.03,71.77 340.22,215.33 19.34,46.84 29.33,96.76 29.33,150.46 0,121.71 -58.67,195.99 -175.42,222.85 -61.15,12.48 -147.94,16.85 -259.66,14.34l-388.26 -10.62c12.48,-280.27 103.61,-463.17 274.65,-548.68 56.19,-29.33 115.47,-43.68 179.14,-43.68zm636.72 1147.94l-91.76 -32.47c-85.52,185.38 -222.85,290.27 -413.26,314.6 -24.33,2.48 -47.43,3.76 -69.28,3.76 -256.56,0 -416.98,-152.94 -483.13,-457.55 -19.37,-85.52 -30.61,-179.17 -33.09,-281.55l439.45 7.51c297.13,4.34 488.74,-23.09 573.65,-84.28 66.18,-48.7 99.24,-118.61 99.24,-208.5 0,-166.04 -84.24,-297.75 -252.8,-395.13 -119.23,-70.53 -257.18,-106.1 -413.22,-106.1 -304.61,0 -523.11,126.71 -654.82,380.13 -68.01,131.71 -102.34,280.89 -102.34,446.31 0,302.75 108.61,526.83 325.84,672.92 129.19,85.52 276.52,128.57 442.55,128.57 263.42,0 456.93,-95.48 581.78,-285.24 19.34,-34.33 36.19,-68.67 51.19,-103z"/>
   <path class="fil0" d="M4483.39 1450.21c170.42,0 284.03,71.77 340.21,215.33 19.34,46.84 29.33,96.76 29.33,150.46 0,121.71 -58.67,195.99 -175.41,222.85 -61.15,12.48 -147.94,16.85 -259.66,14.34l-388.27 -10.62c12.48,-280.27 103.62,-463.17 274.65,-548.68 56.19,-29.33 115.48,-43.68 179.14,-43.68zm636.72 1147.94l-91.76 -32.47c-85.52,185.38 -222.85,290.27 -413.26,314.6 -24.33,2.48 -47.43,3.76 -69.28,3.76 -256.56,0 -416.98,-152.94 -483.13,-457.55 -19.37,-85.52 -30.61,-179.17 -33.09,-281.55l439.45 7.51c297.13,4.34 488.75,-23.09 573.65,-84.28 66.18,-48.7 99.24,-118.61 99.24,-208.5 0,-166.04 -84.24,-297.75 -252.8,-395.13 -119.23,-70.53 -257.18,-106.1 -413.22,-106.1 -304.61,0 -523.11,126.71 -654.82,380.13 -68.01,131.71 -102.34,280.89 -102.34,446.31 0,302.75 108.61,526.83 325.84,672.92 129.19,85.52 276.52,128.57 442.55,128.57 263.42,0 456.93,-95.48 581.78,-285.24 19.34,-34.33 36.19,-68.67 51.19,-103z"/>
   <path class="fil0" d="M5908.3 2857.81l-164.18 0 0 -789.63c6.86,-226.6 87.38,-390.13 240.94,-490.02 66.18,-41.81 132.98,-62.43 201.65,-62.43 148.57,0 249.67,69.29 303.37,208.51 21.82,56.19 33.06,119.23 33.06,190.38l0 724.1c0,112.34 -31.81,179.14 -95.48,200.99 -36.23,12.48 -96.13,18.1 -179.17,18.1l0 91.76 823.34 0c0,-53.67 -18.72,-83.04 -54.91,-88 -10,-2.52 -21.85,-3.76 -36.85,-3.76l-182.9 0 0 -907c0,-243.43 -84.24,-418.22 -252.18,-523.08 -78,-46.19 -162.28,-69.28 -252.18,-69.28 -180.38,0 -329.6,71.76 -446.31,215.98 -44.33,56.15 -79.28,117.96 -106.1,186.62l-15 -365.79 -529.97 0 0 91.14 274.03 0 0 1152.32c0,112.34 -31.19,179.14 -94.86,200.99 -36.85,12.48 -96.13,18.1 -179.17,18.1l0 91.76 804.63 0c0,-53.67 -18.1,-83.04 -54.94,-88 -9.96,-2.52 -21.82,-3.76 -36.81,-3.76z"/>
   <path class="fil0" d="M7807.47 2857.81l-182.9 0 0 -1462.55 -566.78 0 0 91.14 292.75 0 0 1152.32c0,112.34 -38.06,180.38 -113.58,204.72 -36.85,10 -96.13,14.37 -179.17,14.37l0 91.76 840.82 0c0,-53.67 -18.1,-83.04 -54.29,-88 -12.48,-2.52 -24.34,-3.76 -36.85,-3.76zm-139.19 -1996.87c0,-84.9 -37.47,-146.08 -112.99,-182.89 -29.33,-11.86 -57.43,-18.1 -84.28,-18.1 -85.48,0 -146.05,39.3 -182.89,117.33 -12.48,26.23 -18.1,54.33 -18.1,83.66 0,90.52 39.95,152.29 120.47,186.62 26.85,10 53.7,14.99 80.52,14.99 85.52,0 144.84,-39.33 179.17,-117.37 12.48,-26.82 18.1,-54.91 18.1,-84.25z"/>
   <path class="fil0" d="M9223.5 2986.38c187.89,0 291.51,-113.58 310.85,-340.18 2.52,-14.99 3.76,-28.09 3.76,-40.57l-94.86 -3.76c-17.51,177.9 -64.94,268.41 -142.95,270.93 -63.04,-5 -96.13,-68.04 -98.65,-190.41l0 -771.54c0,-348.94 -174.14,-533.07 -523.08,-552.41 -21.85,0 -43.7,0 -65.56,0 -273.38,0 -456.28,63.67 -548.69,190.37 -29.33,41.19 -44.3,83.04 -44.3,124.23 0,75.52 35.57,119.23 106.1,131.71 12.48,2.48 24.33,3.72 36.85,3.72 56.15,0 97.38,-35.57 124.2,-106.1 34.33,-90.52 57.43,-144.18 69.28,-161.04 46.84,-61.18 118.61,-91.14 215.99,-91.14 229.09,14.34 347.69,139.81 354.55,376.41l0 230.33c-573.02,0 -900.73,119.85 -983.76,358.93 -14.34,46.19 -21.85,96.1 -21.85,149.81 0,185.38 81.8,312.09 245.32,380.13 65.56,26.85 135.46,40.57 208.51,40.57 177.9,0 327.7,-61.15 449.42,-182.89 44.33,-46.81 76.8,-95.48 99.27,-146.67 28.71,217.23 129.19,327.08 299.61,329.56zm-727.83 -146.67c-148.57,0 -240.32,-74.28 -274.04,-222.85 -7.48,-34.33 -11.24,-71.8 -11.24,-113.61 0,-163.56 93.62,-267.17 281.51,-310.85 99.89,-21.85 245.32,-34.33 435.08,-36.85l0 292.75c-36.19,168.56 -125.47,286.51 -266.52,355.18 -56.19,24.37 -111.13,36.22 -164.8,36.22z"/>
   <path class="fil1" d="M308.72 3406.76l0.75 -0.26c0,0 0.13,0.1 0.13,0.1l-0.43 0.16c0,0 -0.36,0.1 -0.46,0zm682.55 -2596.12c187.21,-16.07 332.34,63.6 403.22,163.39 86.54,121.88 119.04,266.68 124.46,448.76 9.21,308.89 -71.44,673.02 -439.09,704.11 -189.37,16.04 -329.93,-64.74 -405.48,-165.39 -160.03,-213.11 -167.25,-691.28 -37.27,-931.2 64.81,-119.56 170.71,-203.87 354.17,-219.68zm1320.13 -415.48c0.29,-0.17 0.85,0.19 0.85,0.52 0,0.13 0.36,0.23 0.36,0.2 -0.1,-0.03 -5.78,1.89 -1.21,-0.72zm-494.99 691.24c-14.44,-15.68 -34.92,-54.32 -48.44,-72.19 -297.62,-394.15 -961.88,-427.89 -1326.2,-139 -87.54,69.42 -171.46,167.25 -218.83,271.78 -109.46,241.47 -90.68,549.44 91.33,753.47 67.85,76.01 44.1,53.74 124.49,120.86l142.88 102.7c-191.91,2.42 -347.4,85.72 -390.29,280.57 -40.87,185.54 18.55,371.15 165.78,481.85 149.61,112.54 362.1,93.69 573.78,96.46 111.16,1.44 222.06,2.97 333.22,4.44 165.55,2.22 441.22,-12.28 555.15,114.1 57.85,64.19 64.03,182.05 13.52,259.69 -60.27,92.67 -194.78,154.22 -298.5,188.65 -338.55,112.34 -879.17,126.94 -1137.55,-54.68 -23.52,-16.53 -78.4,-58.83 -84.21,-84.38 9.93,2.13 58.47,35.74 75.82,45.15 92.35,49.98 184.79,77.16 295.72,74.51 0.52,-51.12 -66.22,-133.47 -102.64,-172.44 -40.7,-43.51 -96.82,-87.02 -160.06,-121.94 -111.52,-61.48 -276.06,-123.09 -421.39,-144.35 14.63,186.85 111.23,326.95 205.07,408.42 33.94,29.46 45.83,43.25 84.83,68.76 102.34,67.03 195.28,107.6 319.31,142 332.8,92.35 756.11,63.41 1056.31,-63.01 144.09,-60.69 259.95,-133.08 352.01,-259.53 90.02,-123.61 113.68,-328.78 40.86,-485.64 -113.02,-243.46 -398.52,-271.59 -644.4,-276.91 -207.1,-4.48 -712.18,14.02 -892.27,-28.26 -82.32,-19.31 -141.48,-68.07 -153.86,-153.69 -34.17,-237.02 278.97,-197.56 415.94,-195.87 292.16,3.69 517.62,24.99 773.43,-143.63 71.7,-47.3 113.06,-88.13 163.92,-143.89 51.19,-56.12 91.95,-112.99 123.15,-184.2 219.12,-500.34 -27.34,-944.18 285.73,-1252.28 38.06,-37.47 134.09,-111.19 181,-126.81 -71.54,75.1 -95.81,96.2 -145.59,198.74 -31.07,64.03 -68.67,197.83 -65.13,280.18 105.87,-10.03 228.56,-100.58 302.81,-174.21l48.08 -50.89c17.38,-19.01 25.65,-32.31 42.43,-52.66 16.56,-20.06 26.26,-37.33 41.06,-57.78 74.54,-103.09 143.24,-263.42 188.15,-390.43 9.31,-26.43 43.19,-123.41 43.91,-145.52 -139.35,-19.47 -317.05,26.62 -424.2,80.03 -110.28,54.98 -169.93,103.74 -252.83,190.24 -122.4,127.69 -241.69,398.07 -260.22,566.72 -9.15,83.53 -8.13,161.53 -13.1,244.86z"/>
   <path class="fil0" d="M9569.81 931.74c46.45,0 91.82,11.89 136.12,35.83 44.23,23.78 78.82,57.98 103.45,102.31 24.69,44.49 37.11,90.81 37.11,138.89 0,47.72 -12.25,93.69 -36.59,137.65 -24.33,44.04 -124.94,105.48 -168.88,129.81 -43.93,24.37 -23.39,9.34 -71.21,9.34 -47.96,0 -93.95,-12.12 -137.92,-36.55 -43.94,-24.3 -78.14,-58.51 -102.57,-102.61 -24.43,-43.97 -36.72,-89.93 -36.72,-137.65 0,-48.08 12.41,-94.4 37.21,-138.89 24.96,-44.33 59.48,-78.53 103.71,-102.31 44.33,-23.94 89.67,-35.83 136.28,-35.83zm0 45.83c-38.97,0 -76.9,10.03 -113.71,29.96 -36.81,19.93 -65.66,48.48 -86.43,85.55 -20.81,37.04 -31.2,75.62 -31.2,115.7 0,39.98 10.26,78.2 30.67,114.76 20.45,36.59 49,65.1 85.69,85.55 36.68,20.39 75.03,30.67 114.98,30.67 39.82,0 78.17,-10.29 114.85,-30.67 36.69,-20.45 65.27,-48.96 85.55,-85.55 20.29,-36.55 30.41,-74.77 30.41,-114.76 0,-40.08 -10.39,-78.66 -31.06,-115.7 -20.65,-37.07 -49.46,-65.63 -86.4,-85.55 -36.98,-19.93 -74.78,-29.96 -113.35,-29.96zm-121.62 384.02l0 -297.59 102.44 0c35.08,0 60.37,2.78 76.02,8.27 15.78,5.52 28.19,15.02 37.6,28.81 9.28,13.65 13.88,28.19 13.88,43.57 0,21.69 -7.74,40.74 -23.42,56.77 -15.52,16.14 -36.16,25.15 -62,27.15 10.55,4.41 19.04,9.64 25.31,15.78 12.02,11.66 26.69,31.33 44.07,58.99l36.36 58.24 -58.37 0 -26.56 -46.84c-20.81,-36.94 -37.7,-60.11 -50.5,-69.38 -8.76,-6.76 -21.53,-10.16 -38.45,-10l-28.29 0 0 126.22 -48.09 0zm48.09 -167.57l58.37 0c27.93,0 46.97,-4.11 57.1,-12.38 10.16,-8.26 15.29,-19.3 15.29,-32.83 0,-8.79 -2.52,-16.66 -7.38,-23.56 -4.87,-7.02 -11.66,-12.15 -20.32,-15.52 -8.75,-3.4 -24.79,-5.16 -48.35,-5.16l-54.71 0 0 89.44z"/>
  </g>
 </g>
</svg>
